<?xml version="1.0"?>
<svg width="600" height="530" xmlns="http://www.w3.org/2000/svg" xmlns:svg="http://www.w3.org/2000/svg" version="1.1">
 <g class="layer">
  <title>Layer 1</title>
  <path d="m135.72,44.03c66.5,49.92 138.02,151.14 164.28,205.46c26.26,-54.32 97.78,-155.54 164.28,-205.46c47.98,-36.02 125.72,-63.89 125.72,24.8c0,17.71 -10.15,148.79 -16.11,170.06c-20.7,73.99 -96.14,92.86 -163.25,81.44c117.3,19.96 147.14,86.09 82.7,152.22c-122.39,125.59 -175.91,-31.51 -189.63,-71.77c-2.52,-7.38 -3.69,-10.83 -3.71,-7.89c-0.02,-2.94 -1.2,0.51 -3.71,7.89c-13.71,40.26 -67.23,197.36 -189.63,71.77c-64.44,-66.13 -34.6,-132.26 82.7,-152.22c-67.11,11.42 -142.55,-7.45 -163.25,-81.44c-5.96,-21.28 -16.11,-152.36 -16.11,-170.07c0,-88.68 77.74,-60.81 125.72,-24.79z" fill="#282828" id="svg_1"/>
 </g>
</svg>
