<svg width="16" height="16" viewBox="0 0 16 16" fill="none" xmlns="http://www.w3.org/2000/svg">
<rect x="2" y="11" width="1" height="3" fill="white"/>
<rect x="3" y="13" width="2" height="1" fill="white"/>
<rect x="5" y="12" width="1" height="1" fill="white"/>
<rect x="6" y="11" width="1" height="1" fill="white"/>
<rect x="7" y="10" width="1" height="1" fill="white"/>
<rect x="8" y="9" width="1" height="1" fill="white"/>
<rect x="9" y="8" width="1" height="1" fill="white"/>
<rect x="10" y="7" width="1" height="1" fill="white"/>
<rect x="11" y="6" width="1" height="1" fill="white"/>
<rect x="12" y="5" width="1" height="1" fill="white"/>
<rect x="11" y="3" width="3" height="2" fill="white"/>
<rect x="11" y="2" width="2" height="1" fill="white"/>
<rect x="10" y="3" width="1" height="1" fill="white"/>
<rect x="9" y="4" width="1" height="1" fill="white"/>
<rect x="8" y="5" width="1" height="1" fill="white"/>
<rect x="7" y="6" width="1" height="1" fill="white"/>
<rect x="6" y="7" width="1" height="1" fill="white"/>
<rect x="5" y="8" width="1" height="1" fill="white"/>
<rect x="4" y="9" width="1" height="1" fill="white"/>
<rect x="4" y="11" width="2" height="1" fill="white"/>
<rect x="4" y="10" width="1" height="1" fill="white"/>
<rect x="3" y="10" width="1" height="1" fill="white"/>
</svg>
